<svg width="50" height="50" viewBox="0 0 50 50" fill="none" xmlns="http://www.w3.org/2000/svg">
<path d="M16.6669 33.7708L16.6669 16.2292C16.6659 15.5366 16.861 14.858 17.2297 14.2718C17.5984 13.6855 18.1256 13.2157 18.7502 12.9167C19.4914 12.5666 20.3159 12.4318 21.13 12.5275C21.944 12.6233 22.7148 12.9458 23.3544 13.4583L33.9794 22.2292C34.3766 22.5734 34.6951 22.9989 34.9134 23.477C35.1317 23.955 35.2446 24.4744 35.2446 25C35.2446 25.5255 35.1317 26.0449 34.9134 26.523C34.6951 27.0011 34.3766 27.4266 33.9794 27.7708L23.3544 36.5417C22.7148 37.0542 21.944 37.3767 21.13 37.4725C20.3159 37.5682 19.4914 37.4334 18.7502 37.0833C18.1256 36.7843 17.5984 36.3144 17.2297 35.7282C16.861 35.142 16.6659 34.4633 16.6669 33.7708Z" fill="black"/>
</svg>
