<svg width="50" height="50" viewBox="0 0 50 50" fill="none" xmlns="http://www.w3.org/2000/svg">
<path d="M33.3331 16.2292L33.3331 33.7708C33.3341 34.4634 33.139 35.142 32.7703 35.7282C32.4016 36.3145 31.8744 36.7843 31.2498 37.0833C30.5086 37.4334 29.6841 37.5682 28.87 37.4725C28.056 37.3767 27.2852 37.0542 26.6456 36.5417L16.0206 27.7708C15.6234 27.4266 15.3049 27.0011 15.0866 26.523C14.8683 26.045 14.7554 25.5256 14.7554 25C14.7554 24.4745 14.8683 23.9551 15.0866 23.477C15.3049 22.9989 15.6234 22.5734 16.0206 22.2292L26.6456 13.4583C27.2852 12.9458 28.056 12.6233 28.87 12.5275C29.6841 12.4318 30.5086 12.5666 31.2498 12.9167C31.8744 13.2157 32.4016 13.6855 32.7703 14.2718C33.139 14.858 33.3341 15.5367 33.3331 16.2292Z" fill="black"/>
</svg>
