<svg width="50" height="50" viewBox="0 0 50 50" fill="none" xmlns="http://www.w3.org/2000/svg">
<path d="M25.0003 4.0625C13.5003 4.0625 4.16699 13.3958 4.16699 24.8958C4.16699 36.3958 13.5003 45.7292 25.0003 45.7292H35.417V41.5625H25.0003C15.9587 41.5625 8.33366 33.9375 8.33366 24.8958C8.33366 15.8542 15.9587 8.22917 25.0003 8.22917C34.042 8.22917 41.667 15.8542 41.667 24.8958V27.875C41.667 29.5208 40.1878 31.1458 38.542 31.1458C36.8962 31.1458 35.417 29.5208 35.417 27.875V24.8958C35.417 19.1458 30.7503 14.4792 25.0003 14.4792C19.2503 14.4792 14.5837 19.1458 14.5837 24.8958C14.5837 30.6458 19.2503 35.3125 25.0003 35.3125C27.8753 35.3125 30.5003 34.1458 32.3753 32.25C33.7295 34.1042 36.0628 35.3125 38.542 35.3125C42.6462 35.3125 45.8337 31.9792 45.8337 27.875V24.8958C45.8337 13.3958 36.5003 4.0625 25.0003 4.0625ZM25.0003 31.1458C21.542 31.1458 18.7503 28.3542 18.7503 24.8958C18.7503 21.4375 21.542 18.6458 25.0003 18.6458C28.4587 18.6458 31.2503 21.4375 31.2503 24.8958C31.2503 28.3542 28.4587 31.1458 25.0003 31.1458Z" fill="black"/>
</svg>
